# xmcd
#
# Track frame offsets:
#	183
#	20953
#	40873
#	62588
#	77188
#	94268
#	111498
#	133705
#	157550
#
# Disc length: 2419 seconds
#
# Revision: 0
# Processed by: cddbd v1.5.2PL0 Copyright (c) Steve Scherf et al.
# Submitted via: EZCDAudioConverter 3.1.0.1
#
DISCID=72097109
DTITLE=한영애 - 바라본다
DYEAR=1988
DGENRE=Blues Rock
TTITLE0=누구없소?
TTITLE1=호호호
TTITLE2=비애
TTITLE3=달
TTITLE4=연인 #3
TTITLE5=코뿔소
TTITLE6=갈증
TTITLE7=루씰
TTITLE8=바라본다
EXTD=
EXTT0=
EXTT1=
EXTT2=
EXTT3=
EXTT4=
EXTT5=
EXTT6=
EXTT7=
EXTT8=
PLAYORDER=
